# xmcd
#
# Track frame offsets:
# 151
# 12878
# 28708
# 42564
# 57919
# 71876
# 89970
# 107019
# 123045
# 136209
#
# Disc length: 2061 seconds
#
#
# Revision: 0
# Processed by: cddbd v1.5PL3 Copyright (c) Steve Scherf et al.
# Submitted via: FreeRIP 2.60 
#
DISCID=8c080b0a
DTITLE=Robert David - Chasing The Ghosts
DYEAR=1998
DGENRE=Blues
TTITLE0=Circe's Stomp
TTITLE1=Sweep Marie
TTITLE2=Frankly My Dear
TTITLE3=Pale Blue Rose
TTITLE4=Joliane
TTITLE5=Quite Heart
TTITLE6=Send Me An Angle
TTITLE7=Waltz In Blue
TTITLE8=Skiddlee-Dee
TTITLE9=Come Hell Or High Water (We're Here)
EXTD=Can be heard on BluesfestRadio.com
EXTT0=
EXTT1=
EXTT2=
EXTT3=
EXTT4=
EXTT5=
EXTT6=
EXTT7=
EXTT8=
EXTT9=
PLAYORDER=
